# xmcd
#
# Track frame offsets: 
#        150
#        11365
#        39423
#        56392
#        86288
#        106767
#        136431
#        140254
#        158557
#        167386
#        181090
#        216440
#        235640
#        261764
#        271051
#
# Disc length: 3995 seconds
#
# Revision: 0
# Processed by: cddbd v1.5.2PL0 Copyright (c) Steve Scherf et al.
# Submitted via: ExactAudioCopy v1.0b1
#
DISCID=af0f990f
DTITLE=Planéte Musique - Planéte musique 2010
DYEAR=2010
DGENRE=Country
TTITLE0=Savaty Orkestar - Locminé
TTITLE1=electrik Grand ensemble de la Méditerranée-Mama Ide
TTITLE2=Violons barbares - Chasseur
TTITLE3=OstinatO - Tourpakak
TTITLE4=Duo Combi Peirat - Escolas
TTITLE5=Trio Erik marchand - Ar c'halimant
TTITLE6=Sébastien Bertrand - Une boîte en carton grise 
TTITLE7=Quartet Girault-Gaillard - Le miracle de Saint Nicolas
TTITLE8=Ivan Kravaix - Bourée des environs du Puy de Dôme
TTITLE9=Sébastien Bertrand - Moi j'ai un accordéon
TTITLE10=Michel Godard and Jean-luc Thomas - Karsilamas Servikos
TTITLE11=Sloï and Yannick Jaulin - Ponant Express
TTITLE12=Baudoin, de Pair en Hilhs - La novia n'a a corona l'itomba
TTITLE13=Pèire Boissière - Humanus canis, Caninus homo
TTITLE14=André Ricras - Je vosu réfléchis
EXTD=
EXTT0=
EXTT1=
EXTT2=
EXTT3=
EXTT4=
EXTT5=
EXTT6=
EXTT7=
EXTT8=
EXTT9=
EXTT10=
EXTT11=
EXTT12=
EXTT13=
EXTT14=
PLAYORDER=
